PathFileType	4	(X/Y/Z)	C:\Users\WrightLab\Desktop\Jo\P2_Trial20.trc
DataRate	CameraRate	NumFrames	NumMarkers	Units	OrigDataRate	OrigDataStartFrame	OrigNumFrames
100.00	100.00	       46	19	mm	100.00	1	       787
Frame#	Time	Headset_Front			Headset_Back			Headset_Left			Headset_Right			Left_Shoulder			Right_Shoulder			Sternum			C7			Left Elbow			Right Elbow			Left Wrist			Right Wrist			Left ASIS			Right ASIS			S2			Left Knee			Right Knee			Left Ankle			Right Ankle			
		X1	Y1	Z1	X2	Y2	Z2	X3	Y3	Z3	X4	Y4	Z4	X5	Y5	Z5	X6	Y6	Z6	X7	Y7	Z7	X8	Y8	Z8	X9	Y9	Z9	X10	Y10	Z10	X11	Y11	Z11	X12	Y12	Z12	X13	Y13	Z13	X14	Y14	Z14	X15	Y15	Z15	X16	Y16	Z16	X17	Y17	Z17	X18	Y18	Z18	X19	Y19	Z19	

1	0.000																												-8.49208	1211.81311	2346.24487							-323.18671	987.90027	2328.50000							-391.19360	498.81863	2086.53516										
2	0.010																												-9.71666	1211.43127	2341.87549							-323.02939	987.66925	2323.16919							-391.88907	498.57202	2083.62988										
3	0.020																												-10.64357	1211.38538	2338.40771							-322.80060	987.75159	2318.10352							-392.44220	497.92538	2082.47437										
4	0.030																												-11.93813	1210.99988	2334.46631							-322.50732	987.42773	2312.05005							-393.29663	498.19757	2080.01294										
5	0.040																						-284.91937	1484.87244	2281.13452				-13.85715	1210.63611	2330.29541							-322.31546	987.97839	2307.74194							-393.58740	497.33859	2077.50146										
6	0.050																						-284.75058	1485.22278	2275.81836				-15.39071	1209.91431	2326.21191							-321.76294	987.60748	2302.29492							-394.32208	497.77426	2074.75586										
7	0.060																						-284.43555	1485.65356	2270.89258				-16.72047	1209.48718	2322.47266							-320.77658	987.14703	2297.01001							-394.59109	497.55209	2074.55249										
8	0.070																						-283.43826	1485.58850	2264.78491				-18.23169	1209.24890	2318.69141							-320.43994	987.46027	2293.26343							-394.73929	497.33063	2074.25586										
9	0.080																						-283.30423	1486.57849	2260.55322				-19.66332	1208.20996	2313.80688							-318.90982	986.69574	2287.02930							-395.65112	498.27975	2071.96655										
10	0.090																						-282.33228	1487.22327	2254.64551				-20.99943	1208.21399	2310.32495							-318.03119	986.99463	2282.71606							-395.82211	498.11282	2070.01538										
11	0.100																						-281.19550	1487.42090	2249.25659				-22.07924	1208.34875	2307.09839							-317.12152	987.06140	2278.47363							-395.96497	498.21585	2067.89600										
12	0.110	-271.44888	1734.91907	2129.90308																			-280.59375	1488.50232	2244.80615				-22.85981	1207.58459	2302.81738							-315.67468	986.65186	2273.20020							-396.00757	498.33350	2065.92480										
13	0.120	-270.35287	1734.72498	2125.95801																			-279.52539	1488.73853	2239.70923				-23.37642	1207.85168	2299.78027							-315.37424	987.68115	2270.17920							-395.88281	498.35052	2064.86255										
14	0.130	-268.91638	1735.22864	2121.14624																			-277.77826	1488.97559	2234.07837				-23.64549	1207.34473	2295.23682							-313.66080	987.92224	2264.91431							-395.77005	498.46927	2063.76587										
15	0.140	-267.69913	1735.55615	2115.68823																			-276.86325	1489.50757	2229.16187				-23.41953	1207.93884	2292.63867							-312.90497	988.78046	2261.41699							-395.37775	498.36575	2062.70020										
16	0.150	-266.47372	1735.51978	2110.68970																			-276.17453	1489.82019	2224.87329				-23.39343	1207.99976	2288.99731							-311.92703	989.46503	2257.16748							-395.04315	498.29364	2061.56885										
17	0.160	-265.49075	1735.83557	2105.86157																			-274.60620	1490.64880	2219.77124				-22.93301	1208.24060	2285.32837							-310.63824	990.44763	2252.57739							-394.57925	498.02295	2060.34448										
18	0.170	-265.02676	1736.11365	2100.60767																			-273.36868	1490.91748	2214.38989				-21.86207	1208.55591	2282.89941				66.84613	1202.31189	2120.68530	-309.82089	991.12305	2249.46460							-393.92181	497.91675	2058.51611										
19	0.180	-263.95673	1735.70728	2095.33716																			-271.95792	1491.31812	2208.86133				-20.77825	1208.63135	2279.66699				67.76706	1200.15417	2116.42480	-308.14038	991.48718	2244.57349							-393.33630	497.82672	2056.56665										
20	0.190	-263.29309	1735.47339	2089.58423																			-270.42947	1491.95959	2203.91309				-19.81638	1209.36389	2276.39868				69.38203	1198.51453	2112.70581	-307.63736	992.55511	2241.96338							-392.49167	497.55750	2054.89185										
21	0.200	-263.30017	1735.32129	2085.89063																			-269.39224	1492.06653	2199.54248				-18.82372	1210.07629	2272.79321				70.94657	1197.39185	2109.69019	-305.71451	992.61890	2236.57642							-391.45569	497.04596	2053.11353										
22	0.210	-262.59052	1734.92078	2079.43677																			-268.09311	1492.08167	2194.69067				-17.78896	1210.18945	2269.73022				72.55029	1196.34302	2105.91211	-304.52469	993.03528	2232.76660							-390.38071	496.78314	2051.88379										
23	0.220	-261.93057	1734.30957	2074.50269																			-266.53827	1492.30383	2189.55908				-16.05830	1210.66956	2265.96289				74.69486	1194.28418	2101.14746	-303.25095	993.51709	2229.34912							-389.21420	496.42514	2050.43726										
24	0.230	-261.62122	1733.87793	2069.04321																			-264.52875	1492.21094	2184.40820				-14.49374	1211.15540	2263.22437				76.43290	1193.30310	2097.49463	-301.43121	993.13422	2225.31982							-387.69171	495.94467	2048.55859										
25	0.240	-260.36487	1733.05884	2063.10059																			-262.93854	1491.73413	2178.84302				-12.75968	1211.35217	2260.08228				78.85397	1191.69824	2094.09375	-299.97968	993.44354	2221.44678							-386.37769	495.78262	2046.36584										
26	0.250	-259.23450	1732.09192	2057.60913																			-261.63397	1491.57007	2174.32251				-10.66971	1211.52710	2256.51953				80.80054	1191.47290	2091.00562	-298.29315	993.83112	2217.90381							-384.50430	495.38968	2043.73157										
27	0.260	-258.13052	1731.30566	2051.35254																			-259.54666	1491.87939	2168.95776				-8.90524	1211.44971	2252.40796				83.00937	1190.88599	2087.57715	-296.59775	993.43250	2214.70044							-382.92868	494.93979	2041.97510										
28	0.270	-256.10556	1730.94275	2046.04980																			-257.65771	1491.43018	2164.76782				-7.11451	1211.25159	2249.06421				85.44056	1189.69275	2084.31421	-294.28857	993.65491	2210.18237							-381.12204	494.38013	2040.96167							-24.97963	200.71700	2144.19214	
29	0.280	-254.14780	1730.51599	2039.93311	-375.99399	1476.87646	1983.88232																-255.50581	1491.31763	2160.42310				-5.52338	1211.53430	2245.60645				87.74755	1189.74780	2081.84253	-292.02899	992.91071	2206.96753							-379.08643	494.16037	2039.46948							-15.22589	195.44333	2128.53149	
30	0.290	-252.09148	1729.78821	2033.75305	-373.31042	1476.21863	1979.54871																-252.89914	1491.14429	2154.91992				-3.78180	1211.31689	2242.00293				90.74281	1189.16956	2078.16016	-289.38895	992.58423	2202.70190							-377.09933	493.89426	2036.92932							-6.18317	190.87053	2112.09888	
31	0.300	-248.96613	1728.38367	2027.33533	-370.35043	1475.78564	1974.48230																-250.85724	1490.72375	2150.54688				-1.56451	1210.39856	2237.74878				93.38155	1188.30652	2075.16162	-286.94403	992.38470	2199.60791							-375.06830	493.65826	2034.39905							3.61248	185.38641	2093.88721	
32	0.310	-245.82457	1728.24792	2021.25037	-366.78912	1474.13843	1968.85718																-248.34137	1490.20410	2145.47485				0.48408	1210.07947	2234.28149				96.48869	1188.16833	2071.08398	-283.61411	991.29126	2195.16138							-372.81265	493.07175	2032.00159							14.53967	180.82484	2076.77075	
33	0.320	-241.88023	1727.33411	2015.23340	-363.98141	1473.62842	1964.82422																-245.46341	1489.67139	2140.40625				2.72607	1210.16162	2230.66992				99.31836	1187.30908	2068.11890	-280.51730	990.67224	2191.62378							-370.57245	492.39975	2030.11438							25.15701	177.84956	2058.99878	
34	0.330	-237.61102	1726.69568	2009.98315	-360.96396	1472.99402	1961.03357																-242.65486	1489.18445	2135.71533				5.41453	1209.58545	2226.95483				102.43696	1186.90991	2064.02002	-277.21899	990.01514	2187.72192							-367.94366	492.11786	2028.17358							36.92587	176.57817	2041.55884	
35	0.340	-233.64182	1725.68872	2005.44287	-357.00784	1471.48254	1954.89197																-239.75081	1488.84192	2131.18921				7.80155	1209.09546	2223.04004				105.77398	1186.04871	2060.83569	-273.97675	989.02454	2184.12109							-365.44949	491.60480	2025.48010							48.99828	174.59090	2026.63647	
36	0.350	-228.98520	1724.87573	1999.46704	-353.87027	1470.73279	1950.14954																-236.85542	1487.91980	2127.21753				10.80994	1208.85010	2219.52686				109.39059	1186.22070	2057.23560	-270.35464	988.47894	2180.09619							-362.69144	490.79922	2022.60205							61.67822	174.50731	2009.37109	
37	0.360	-224.32973	1723.34802	1994.42993	-349.90982	1469.41931	1944.86414	-324.02243	1612.32996	1908.19434													-232.92876	1487.13708	2121.74609				13.84964	1208.50977	2216.16846				112.36447	1186.41333	2054.75171	-266.11661	987.18317	2175.72754							-360.36523	490.07962	2020.48364							73.33253	175.96178	1993.61340	
38	0.370	-218.96756	1722.22803	1989.84363	-346.43399	1468.66248	1941.06677	-320.13153	1611.73511	1903.56897													-229.75233	1486.39612	2117.43823				16.92501	1208.17139	2212.80396				115.28345	1186.04675	2051.85498	-262.77386	987.04120	2172.37695							-357.61462	489.54364	2018.16345							85.16695	177.50121	1977.99268	
39	0.380	-214.16678	1720.52808	1983.74231	-342.44449	1467.60461	1936.62390	-315.94983	1610.11572	1899.53125													-225.97565	1485.26221	2111.87939				20.58227	1207.89026	2209.03076				119.66142	1184.45105	2046.49500	-259.08542	985.93524	2168.55859							-355.10986	488.92029	2014.79028							96.45308	179.22641	1962.93372	
40	0.390	-208.72798	1719.15881	1979.37024	-339.16153	1466.30103	1932.59521	-312.45575	1609.19714	1895.64380													-222.60300	1484.55054	2107.80347				24.23526	1207.27039	2205.08691				123.32463	1184.01819	2042.28455	-255.07562	985.32080	2164.47021							-352.29807	488.16931	2011.44666							107.66673	182.45648	1949.45471	
41	0.400	-204.11803	1717.38464	1974.30371	-334.91769	1465.53259	1927.22473	-308.33618	1607.78748	1890.83850													-218.30795	1483.32471	2102.99292				27.68930	1206.54932	2200.67334				127.30500	1183.65991	2039.16113	-251.00221	984.57043	2160.61865							-350.10742	487.46228	2009.07373							119.16472	185.34061	1934.68311	
42	0.410	-199.16454	1715.00476	1969.35608	-330.87350	1464.57166	1924.28296	-304.14682	1606.21594	1887.09937													-214.17110	1483.03284	2099.40576				31.69948	1205.11829	2196.02686				131.90424	1182.32288	2034.68384	-246.93039	983.47150	2156.06616							-347.36829	486.89169	2005.69214							129.57898	188.51991	1919.02759	
43	0.420	-194.00648	1713.11340	1965.04053	-326.66693	1462.92297	1919.03040	-300.08322	1604.30811	1882.52478													-210.27711	1481.51270	2094.51392				35.99486	1205.15503	2192.79028				135.74544	1181.63037	2030.57556	-243.00252	982.66833	2151.52100							-344.93161	486.34528	2001.49182							139.27646	191.55673	1904.52295	
44	0.430	-189.21768	1711.04590	1959.74805	-322.47470	1461.82617	1915.75049	-295.75797	1602.25085	1877.66602													-205.37021	1480.82117	2089.85718				40.47926	1204.37427	2189.02490				140.31271	1180.09058	2025.65771	-238.78040	981.99213	2147.52856							-342.23901	485.49844	1998.45007				-366.94281	133.90857	2075.33862	148.77657	195.50151	1890.89246	
45	0.440	-184.12064	1708.87122	1955.08276	-317.59799	1460.53528	1910.71838	-291.69629	1600.75464	1874.58154													-200.27394	1479.55518	2085.39722				45.25739	1202.91418	2183.50610				145.19058	1179.09375	2020.66064	-234.76210	981.18140	2143.39966							-339.74115	484.58112	1995.28125				-365.75345	133.15926	2073.56689	157.45413	198.40239	1877.50769	
46	0.450	-179.34363	1706.76404	1950.01575	-313.41376	1458.86316	1906.83923	-287.12531	1598.04443	1868.70203													-195.18004	1477.49756	2080.09302				49.73222	1202.24658	2179.24023				149.73291	1177.44470	2016.99170	-230.38510	979.91992	2138.30078							-336.97925	483.31503	1991.39636				-363.62695	132.35213	2071.09351	165.56410	202.74315	1865.05249	
